<svg version="1.1" id="Capa_1" xmlns="http://www.w3.org/2000/svg" x="0" y="0" viewBox="0 0 340 340" xml:space="preserve"><path d="M170 0C76.109 0 0 76.112 0 170s76.109 170 170 170c93.89 0 170-76.112 170-170S263.89 0 170 0zm-.367 281.611c-12.574 0-22.803-10.23-22.803-22.804 0-12.573 10.229-22.803 22.803-22.803 12.575 0 22.806 10.229 22.806 22.803 0 12.574-10.231 22.804-22.806 22.804zm35.724-111.952c-9.856 9.221-16.367 15.312-16.367 30.062v10.911a5 5 0 01-5 5h-27.122a5 5 0 01-5-5v-10.911c0-30.293 15.744-45.076 27.239-55.87 9.785-9.179 16.248-15.242 16.248-29.778 0-4.591 0-18.562-24.925-18.562-23.37 0-24.306 12.883-24.705 18.384l-.813 11.186a4.998 4.998 0 01-1.771 3.464 4.99 4.99 0 01-3.715 1.148l-27.051-2.707a5 5 0 01-4.488-5.351l.799-10.613c2.41-31.974 26.749-52.634 62.006-52.634 18.438 0 33.952 5.176 44.865 14.968 11.066 9.931 16.918 24.102 16.918 40.98.002 29.929-15.673 44.606-27.118 55.323z"/></svg>